Coordinates
version=1
nRows=27
nColumns=12
inDegrees=yes

Units are S.I. units (second, meters, Newtons, ...)
Angles are in degrees

endheader
time	SC_y	SC_z	SC_x	AC_y	AC_z	AC_x	GH_y	GH_z	GH_yy	EL_x	PS_y
       0.0              -28.47          18.97          6.235          42.53         -13.19           1.75           95.5         -6.131         -66.12          99.79          126.3
   0.04261              -28.47          18.97          6.236          42.52         -13.19          1.748          95.51         -6.119          -66.1           99.8          126.3
   0.08523              -28.47          18.97          6.237          42.52         -13.19          1.746          95.52         -6.106         -66.07           99.8          126.3
    0.1278              -28.47          18.97          6.238          42.52         -13.19          1.743          95.54         -6.093         -66.04           99.8          126.3
    0.1705              -28.47          18.96          6.238          42.52         -13.18          1.741          95.55         -6.079         -66.01          99.81          126.3
    0.2131              -28.46          18.96          6.239          42.52         -13.18          1.738          95.56         -6.064         -65.98          99.81          126.3
    0.2557              -28.46          18.96          6.241          42.52         -13.18          1.735          95.58         -6.048         -65.94          99.81          126.3
    0.2983              -28.46          18.96          6.242          42.52         -13.18          1.732          95.59         -6.031         -65.91          99.82          126.3
    0.3409              -28.45          18.95          6.243          42.51         -13.18          1.728          95.61         -6.013         -65.87          99.82          126.2
    0.3835              -28.45          18.95          6.244          42.51         -13.18          1.725          95.62         -5.993         -65.82          99.83          126.2
    0.4261              -28.45          18.94          6.246          42.51         -13.18          1.721          95.64         -5.972         -65.78          99.84          126.2
    0.4688              -28.44          18.94          6.247          42.51         -13.18          1.717          95.66         -5.949         -65.73          99.84          126.2
    0.5114              -28.44          18.94          6.249          42.51         -13.18          1.712          95.68         -5.924         -65.67          99.85          126.2
     0.554              -28.43          18.93          6.251           42.5         -13.18          1.707          95.71         -5.898         -65.62          99.85          126.2
    0.5966              -28.43          18.93          6.252           42.5         -13.18          1.702          95.73         -5.869         -65.55          99.86          126.1
    0.6392              -28.42          18.92          6.255           42.5         -13.17          1.696          95.76         -5.838         -65.49          99.87          126.1
    0.6818              -28.41          18.91          6.257          42.49         -13.17           1.69          95.79         -5.804         -65.41          99.88          126.1
    0.7244              -28.41          18.91          6.259          42.49         -13.17          1.683          95.82         -5.767         -65.33          99.89          126.1
    0.7671               -28.4           18.9          6.262          42.49         -13.17          1.676          95.86         -5.727         -65.24           99.9          126.0
    0.8097              -28.39          18.89          6.265          42.48         -13.17          1.667           95.9         -5.683         -65.15          99.91          126.0
    0.8523              -28.38          18.88          6.268          42.48         -13.16          1.658          95.94         -5.635         -65.04          99.92          126.0
    0.8949              -28.37          18.87          6.272          42.47         -13.16          1.649          95.99         -5.582         -64.93          99.94          126.0
    0.9375              -28.36          18.86          6.276          42.47         -13.16          1.638          96.04         -5.523          -64.8          99.95          125.9
    0.9801              -28.35          18.85           6.28          42.46         -13.16          1.626          96.09         -5.458         -64.66          99.97          125.9
     1.023              -28.34          18.84          6.285          42.45         -13.15          1.612          96.16         -5.385          -64.5          99.99          125.8
     1.065              -28.32          18.82           6.29          42.44         -13.15          1.597          96.23         -5.304         -64.32          100.0          125.8
     1.108               -28.3          18.81          6.296          42.44         -13.14           1.58          96.31         -5.214         -64.13          100.0          125.7
